<svg xmlns="http://www.w3.org/2000/svg" viewBox="0 0 500 500" width="500" height="500" role="img" aria-label="Wormhole">
  <defs>
    <radialGradient id="ws-bg" cx="50%" cy="50%" r="55%">
      <stop offset="0%" stop-color="#1e3a8a"/>
      <stop offset="65%" stop-color="#1d4ed8"/>
      <stop offset="100%" stop-color="#3b82f6"/>
    </radialGradient>
    <radialGradient id="ws-glow" cx="50%" cy="50%" r="50%">
      <stop offset="0%" stop-color="#60a5fa" stop-opacity="0.55"/>
      <stop offset="70%" stop-color="#1d4ed8" stop-opacity="0.18"/>
      <stop offset="100%" stop-color="#1e3a8a" stop-opacity="0"/>
    </radialGradient>
    <linearGradient id="ws-arm" x1="0%" y1="0%" x2="100%" y2="100%">
      <stop offset="0%" stop-color="#f5f9ff"/>
      <stop offset="55%" stop-color="#dbeafe"/>
      <stop offset="100%" stop-color="#93c5fd"/>
    </linearGradient>
  </defs>

  <circle cx="250" cy="250" r="248" fill="url(#ws-glow)"/>
  <circle cx="250" cy="250" r="232" fill="url(#ws-bg)"/>

  <g>
    <path
      d="M 250 20 Q 480 20 480 250 Q 480 405 330 420 Q 250 420 250 340 Q 250 275 330 275 Q 375 275 360 330"
      fill="none"
      stroke="url(#ws-arm)"
      stroke-width="45"
      stroke-linecap="round"
      stroke-linejoin="round"
    />
    <path
      d="M 250 20 Q 480 20 480 250 Q 480 405 330 420 Q 250 420 250 340 Q 250 275 330 275 Q 375 275 360 330"
      fill="none"
      stroke="url(#ws-arm)"
      stroke-width="45"
      stroke-linecap="round"
      stroke-linejoin="round"
      transform="rotate(180 250 250)"
    />
  </g>

  <circle cx="250" cy="250" r="18" fill="#ffffff" opacity="0.92"/>
  <circle cx="250" cy="250" r="8" fill="#ffffff"/>
</svg>
